<svg xmlns="http://www.w3.org/2000/svg" width="1200" height="1200" viewBox="0 0 1200 1200" fill="none">
  <rect width="1200" height="1200" fill="#F5EDDF"/>
  <rect x="24" y="36" width="1152" height="1092" rx="42" fill="url(#paper)" stroke="#D8C8AF"/>
  <rect x="66" y="96" width="1068" height="864" rx="34" fill="url(#wash)"/>
  <ellipse cx="600" cy="1032" rx="408" ry="54" fill="#DCC8AB" fill-opacity=".42"/>
  
    <rect x="114" y="166" width="972" height="652" rx="34" fill="url(#glow)" opacity=".8"/>
    <g filter="url(#shadow)">
      <path d="M382 748C518 660 650 554 804 390" stroke="#8D6B46" stroke-width="20" stroke-linecap="round"/>
      <circle cx="840" cy="352" r="36" fill="#60755C"/>
      <path d="M862 330C904 330 938 296 938 254" stroke="#60755C" stroke-width="14" stroke-linecap="round"/>
      <g stroke="#B6D5E8" stroke-width="6" stroke-linecap="round"><path d="M930 254L966 234"/><path d="M938 270L982 266"/><path d="M934 286L968 304"/></g>
      <ellipse cx="470" cy="734" rx="112" ry="56" fill="#E8DDBF"/>
      <circle cx="438" cy="710" r="20" fill="#D990B4"/>
      <circle cx="492" cy="694" r="18" fill="#E7C7D8"/>
      <circle cx="528" cy="724" r="20" fill="#D783A8"/>
    </g>
  <text x="600" y="1014" text-anchor="middle" fill="#947450" font-family="Arial, sans-serif" font-size="29" letter-spacing="6">HELPFUL EXTRA</text>
  <text x="600" y="1086" text-anchor="middle" fill="#223327" font-family="Georgia, serif" font-size="66">Gentle Watering Wand</text>
  <text x="600" y="1134" text-anchor="middle" fill="#5F715C" font-family="Arial, sans-serif" font-size="34">Helpful if you want to keep the porch flowers happy.</text>
  <defs>
    <linearGradient id="paper" x1="600" y1="0" x2="600" y2="1200" gradientUnits="userSpaceOnUse">
      <stop stop-color="#FBF7F0"/>
      <stop offset="1" stop-color="#EEE2D0"/>
    </linearGradient>
    <linearGradient id="wash" x1="600" y1="96" x2="600" y2="960" gradientUnits="userSpaceOnUse">
      <stop stop-color="#F8F2E9"/>
      <stop offset="0.58" stop-color="#F0E5D6"/>
      <stop offset="1" stop-color="#E6D5BD"/>
    </linearGradient>
    <radialGradient id="glow" cx="0" cy="0" r="1" gradientUnits="userSpaceOnUse" gradientTransform="translate(600 240) rotate(90) scale(216 420)">
      <stop stop-color="#FFF7E6"/>
      <stop offset="1" stop-color="#FFF7E6" stop-opacity="0"/>
    </radialGradient>
    <filter id="shadow" x="0" y="0" width="1200" height="1200" filterUnits="userSpaceOnUse" color-interpolation-filters="sRGB">
      <feDropShadow dx="0" dy="19" stdDeviation="22" flood-color="#8B7254" flood-opacity=".16"/>
    </filter>
  </defs>
</svg>