<svg xmlns="http://www.w3.org/2000/svg" width="1200" height="1200" viewBox="0 0 1200 1200" fill="none">
  <rect width="1200" height="1200" fill="#F5EDDF"/>
  <rect x="24" y="36" width="1152" height="1092" rx="42" fill="url(#paper)" stroke="#D8C8AF"/>
  <rect x="66" y="96" width="1068" height="864" rx="34" fill="url(#wash)"/>
  <ellipse cx="600" cy="1032" rx="408" ry="54" fill="#DCC8AB" fill-opacity=".42"/>
  
    <rect x="118" y="158" width="964" height="656" rx="34" fill="url(#glow)" opacity=".82"/>
    <g filter="url(#shadow)">
      <rect x="250" y="626" width="700" height="64" rx="20" fill="#E4D2B8"/>
      <rect x="442" y="438" width="316" height="198" rx="34" fill="#B28656"/>
      <path d="M470 478C470 390 530 340 600 340C670 340 730 390 730 478" stroke="#98724D" stroke-width="14" stroke-linecap="round"/>
      <ellipse cx="530" cy="444" rx="50" ry="50" fill="#D783A8"/>
      <ellipse cx="602" cy="404" rx="56" ry="56" fill="#E7C7D8"/>
      <ellipse cx="678" cy="448" rx="54" ry="54" fill="#CF789D"/>
      <ellipse cx="496" cy="516" rx="42" ry="42" fill="#F1D7A0"/>
      <ellipse cx="632" cy="510" rx="46" ry="46" fill="#EAA38C"/>
      <g fill="#738867">
        <ellipse cx="520" cy="574" rx="18" ry="50" transform="rotate(-24 520 574)"/>
        <ellipse cx="610" cy="582" rx="18" ry="58"/>
        <ellipse cx="688" cy="568" rx="18" ry="50" transform="rotate(24 688 568)"/>
      </g>
    </g>
  <text x="600" y="1014" text-anchor="middle" fill="#947450" font-family="Arial, sans-serif" font-size="29" letter-spacing="6">POPULAR PICK</text>
  <text x="600" y="1086" text-anchor="middle" fill="#223327" font-family="Georgia, serif" font-size="66">Front-Step Flower Basket</text>
  <text x="600" y="1134" text-anchor="middle" fill="#5F715C" font-family="Arial, sans-serif" font-size="34">The kind of flower moment people always want to save.</text>
  <defs>
    <linearGradient id="paper" x1="600" y1="0" x2="600" y2="1200" gradientUnits="userSpaceOnUse">
      <stop stop-color="#FBF7F0"/>
      <stop offset="1" stop-color="#EEE2D0"/>
    </linearGradient>
    <linearGradient id="wash" x1="600" y1="96" x2="600" y2="960" gradientUnits="userSpaceOnUse">
      <stop stop-color="#F8F2E9"/>
      <stop offset="0.58" stop-color="#F0E5D6"/>
      <stop offset="1" stop-color="#E6D5BD"/>
    </linearGradient>
    <radialGradient id="glow" cx="0" cy="0" r="1" gradientUnits="userSpaceOnUse" gradientTransform="translate(600 240) rotate(90) scale(216 420)">
      <stop stop-color="#FFF7E6"/>
      <stop offset="1" stop-color="#FFF7E6" stop-opacity="0"/>
    </radialGradient>
    <filter id="shadow" x="0" y="0" width="1200" height="1200" filterUnits="userSpaceOnUse" color-interpolation-filters="sRGB">
      <feDropShadow dx="0" dy="19" stdDeviation="22" flood-color="#8B7254" flood-opacity=".16"/>
    </filter>
  </defs>
</svg>