<svg xmlns="http://www.w3.org/2000/svg" width="1600" height="900" viewBox="0 0 1600 900" fill="none">
  <rect width="1600" height="900" fill="#F5EDDF"/>
  <rect x="32" y="27" width="1536" height="819" rx="32" fill="url(#paper)" stroke="#D8C8AF"/>
  <rect x="88" y="72" width="1424" height="648" rx="25" fill="url(#wash)"/>
  <ellipse cx="800" cy="774" rx="544" ry="40.5" fill="#DCC8AB" fill-opacity=".42"/>
  
    <rect x="118" y="120" width="1364" height="252" rx="24" fill="url(#glow)" opacity=".8"/>
    <g filter="url(#shadow)">
      <rect x="220" y="588" width="1160" height="58" rx="18" fill="#E4D2B8"/>
      <rect x="736" y="332" width="128" height="186" rx="18" fill="#F8F2E9" stroke="#8E7350" stroke-width="4"/>
      <path d="M864 384H958C1010 384 1052 426 1052 478V486C1052 538 1010 580 958 580H864V384Z" fill="#60755C"/>
      <rect x="786" y="518" width="28" height="126" rx="14" fill="#8F7650"/>
      <ellipse cx="610" cy="550" rx="86" ry="58" fill="#E8DDBF"/>
      <ellipse cx="986" cy="550" rx="86" ry="58" fill="#E8DDBF"/>
      <g fill="#D990B4"><circle cx="574" cy="516" r="24"/><circle cx="628" cy="494" r="22"/><circle cx="652" cy="540" r="26"/><circle cx="950" cy="516" r="24"/><circle cx="1004" cy="494" r="22"/><circle cx="1028" cy="540" r="26"/></g>
      <g fill="#6E836C"><ellipse cx="558" cy="560" rx="18" ry="34" transform="rotate(-28 558 560)"/><ellipse cx="640" cy="568" rx="18" ry="34" transform="rotate(22 640 568)"/><ellipse cx="932" cy="560" rx="18" ry="34" transform="rotate(-28 932 560)"/><ellipse cx="1014" cy="568" rx="18" ry="34" transform="rotate(22 1014 568)"/></g>
    </g>
  <text x="800" y="760.5" text-anchor="middle" fill="#947450" font-family="Arial, sans-serif" font-size="22" letter-spacing="5">PLACEHOLDER</text>
  <text x="800" y="814.5" text-anchor="middle" fill="#223327" font-family="Georgia, serif" font-size="50">Mailbox Flowers</text>
  <text x="800" y="850.5" text-anchor="middle" fill="#5F715C" font-family="Arial, sans-serif" font-size="25">A tiny flower moment that makes the curb feel friendlier.</text>
  <defs>
    <linearGradient id="paper" x1="800" y1="0" x2="800" y2="900" gradientUnits="userSpaceOnUse">
      <stop stop-color="#FBF7F0"/>
      <stop offset="1" stop-color="#EEE2D0"/>
    </linearGradient>
    <linearGradient id="wash" x1="800" y1="72" x2="800" y2="720" gradientUnits="userSpaceOnUse">
      <stop stop-color="#F8F2E9"/>
      <stop offset="0.58" stop-color="#F0E5D6"/>
      <stop offset="1" stop-color="#E6D5BD"/>
    </linearGradient>
    <radialGradient id="glow" cx="0" cy="0" r="1" gradientUnits="userSpaceOnUse" gradientTransform="translate(800 180) rotate(90) scale(162 560)">
      <stop stop-color="#FFF7E6"/>
      <stop offset="1" stop-color="#FFF7E6" stop-opacity="0"/>
    </radialGradient>
    <filter id="shadow" x="0" y="0" width="1600" height="900" filterUnits="userSpaceOnUse" color-interpolation-filters="sRGB">
      <feDropShadow dx="0" dy="14" stdDeviation="16" flood-color="#8B7254" flood-opacity=".16"/>
    </filter>
  </defs>
</svg>