<svg xmlns="http://www.w3.org/2000/svg" width="1600" height="900" viewBox="0 0 1600 900" fill="none">
  <rect width="1600" height="900" fill="#F5EDDF"/>
  <rect x="32" y="27" width="1536" height="819" rx="32" fill="url(#paper)" stroke="#D8C8AF"/>
  <rect x="88" y="72" width="1424" height="648" rx="25" fill="url(#wash)"/>
  <ellipse cx="800" cy="774" rx="544" ry="40.5" fill="#DCC8AB" fill-opacity=".42"/>
  
    <rect x="120" y="126" width="1360" height="252" rx="24" fill="url(#glow)" opacity=".8"/>
    <g filter="url(#shadow)">
      <rect x="220" y="586" width="1160" height="60" rx="18" fill="#E4D2B8"/>
      <rect x="358" y="370" width="884" height="178" rx="24" fill="#F7F1E8" stroke="#D7C4AA"/>
      <rect x="410" y="404" width="212" height="110" rx="16" fill="#D48E63"/>
      <rect x="672" y="404" width="242" height="110" rx="18" fill="#EEF2E8"/>
      <path d="M1016 338L1070 392" stroke="#A37853" stroke-width="14" stroke-linecap="round"/>
      <rect x="1056" y="300" width="52" height="92" rx="16" fill="#60745C"/>
      <rect x="1128" y="398" width="74" height="128" rx="20" fill="#F2E4D0"/>
      <circle cx="518" cy="430" r="28" fill="#F6F0E7"/>
      <path d="M518 466V496" stroke="#F6F0E7" stroke-width="10" stroke-linecap="round"/>
    </g>
  <text x="800" y="760.5" text-anchor="middle" fill="#947450" font-family="Arial, sans-serif" font-size="22" letter-spacing="5">PLACEHOLDER</text>
  <text x="800" y="814.5" text-anchor="middle" fill="#223327" font-family="Georgia, serif" font-size="50">Weekend DIYs</text>
  <text x="800" y="850.5" text-anchor="middle" fill="#5F715C" font-family="Arial, sans-serif" font-size="25">The easy little projects that look more finished than they should.</text>
  <defs>
    <linearGradient id="paper" x1="800" y1="0" x2="800" y2="900" gradientUnits="userSpaceOnUse">
      <stop stop-color="#FBF7F0"/>
      <stop offset="1" stop-color="#EEE2D0"/>
    </linearGradient>
    <linearGradient id="wash" x1="800" y1="72" x2="800" y2="720" gradientUnits="userSpaceOnUse">
      <stop stop-color="#F8F2E9"/>
      <stop offset="0.58" stop-color="#F0E5D6"/>
      <stop offset="1" stop-color="#E6D5BD"/>
    </linearGradient>
    <radialGradient id="glow" cx="0" cy="0" r="1" gradientUnits="userSpaceOnUse" gradientTransform="translate(800 180) rotate(90) scale(162 560)">
      <stop stop-color="#FFF7E6"/>
      <stop offset="1" stop-color="#FFF7E6" stop-opacity="0"/>
    </radialGradient>
    <filter id="shadow" x="0" y="0" width="1600" height="900" filterUnits="userSpaceOnUse" color-interpolation-filters="sRGB">
      <feDropShadow dx="0" dy="14" stdDeviation="16" flood-color="#8B7254" flood-opacity=".16"/>
    </filter>
  </defs>
</svg>