<svg xmlns="http://www.w3.org/2000/svg" width="1200" height="1200" viewBox="0 0 1200 1200" fill="none">
  <rect width="1200" height="1200" fill="#F5EDDF"/>
  <rect x="24" y="36" width="1152" height="1092" rx="42" fill="url(#paper)" stroke="#D8C8AF"/>
  <rect x="66" y="96" width="1068" height="864" rx="34" fill="url(#wash)"/>
  <ellipse cx="600" cy="1032" rx="408" ry="54" fill="#DCC8AB" fill-opacity=".42"/>
  
    <rect x="130" y="168" width="940" height="646" rx="34" fill="url(#glow)" opacity=".8"/>
    <g filter="url(#shadow)">
      <rect x="316" y="240" width="568" height="470" rx="34" fill="#F8F2EA" stroke="#D8C6AC"/>
      <rect x="430" y="256" width="340" height="438" rx="22" fill="#C78B61"/>
      <path d="M488 430C488 372 538 336 600 336C662 336 712 372 712 430" stroke="#9D7752" stroke-width="16" stroke-linecap="round"/>
      <rect x="492" y="416" width="216" height="176" rx="26" fill="#B88B5D"/>
      <path d="M516 454H684M516 494H684M516 534H684" stroke="#D8B98E" stroke-width="8" stroke-linecap="round"/>
      <path d="M540 428V582M600 424V590M660 428V582" stroke="#9C744D" stroke-width="8" stroke-linecap="round"/>
      <ellipse cx="552" cy="434" rx="34" ry="62" fill="#769069"/>
      <ellipse cx="650" cy="428" rx="30" ry="58" fill="#8BA07C"/>
      <ellipse cx="603" cy="388" rx="28" ry="50" fill="#6D835F"/>
    </g>
  <text x="600" y="1014" text-anchor="middle" fill="#947450" font-family="Arial, sans-serif" font-size="29" letter-spacing="6">CUTE TOUCH</text>
  <text x="600" y="1086" text-anchor="middle" fill="#223327" font-family="Georgia, serif" font-size="66">Woven Door Basket</text>
  <text x="600" y="1134" text-anchor="middle" fill="#5F715C" font-family="Arial, sans-serif" font-size="34">A simple woven accent that feels sweet all year.</text>
  <defs>
    <linearGradient id="paper" x1="600" y1="0" x2="600" y2="1200" gradientUnits="userSpaceOnUse">
      <stop stop-color="#FBF7F0"/>
      <stop offset="1" stop-color="#EEE2D0"/>
    </linearGradient>
    <linearGradient id="wash" x1="600" y1="96" x2="600" y2="960" gradientUnits="userSpaceOnUse">
      <stop stop-color="#F8F2E9"/>
      <stop offset="0.58" stop-color="#F0E5D6"/>
      <stop offset="1" stop-color="#E6D5BD"/>
    </linearGradient>
    <radialGradient id="glow" cx="0" cy="0" r="1" gradientUnits="userSpaceOnUse" gradientTransform="translate(600 240) rotate(90) scale(216 420)">
      <stop stop-color="#FFF7E6"/>
      <stop offset="1" stop-color="#FFF7E6" stop-opacity="0"/>
    </radialGradient>
    <filter id="shadow" x="0" y="0" width="1200" height="1200" filterUnits="userSpaceOnUse" color-interpolation-filters="sRGB">
      <feDropShadow dx="0" dy="19" stdDeviation="22" flood-color="#8B7254" flood-opacity=".16"/>
    </filter>
  </defs>
</svg>